<svg xmlns="http://www.w3.org/2000/svg" viewBox="0 0 48 48" width="48px" height="48px">
  <path d="M 35 5 C 31.691 5 29 7.691 29 11 C 29 14.309 31.691 17 35 17 C 38.309 17 41 14.309 41 11 C 41 7.691 38.309 5 35 5 z M 21.5 6 C 18.467 6 16 8.468 16 11.5 C 16 14.532 18.467 17 21.5 17 C 24.533 17 27 14.532 27 11.5 C 27 8.468 24.533 6 21.5 6 z M 10.5 8 C 8.019 8 6 10.019 6 12.5 C 6 14.981 8.019 17 10.5 17 C 12.981 17 15 14.981 15 12.5 C 15 10.019 12.981 8 10.5 8 z M 10.5 20 C 6.916 20 4 22.916 4 26.5 L 4 35.5 C 4 36.328 4.671 37 5.5 37 L 11 37 L 11 28.5 C 11 25.605 12.177125 22.979125 14.078125 21.078125 C 13.051125 20.398125 11.822 20 10.5 20 z M 21.5 20 C 16.813 20 13 23.813 13 28.5 L 13 38.5 C 13 39.328 13.671 40 14.5 40 L 24 40 L 24 29 C 24 26.244 25.026031 23.728875 26.707031 21.796875 C 25.266031 20.675875 23.462 20 21.5 20 z M 35 20 C 30.038 20 26 24.037 26 29 L 26 41.5 C 26 42.328 26.671 43 27.5 43 L 42.5 43 C 43.329 43 44 42.328 44 41.5 L 44 29 C 44 24.037 39.962 20 35 20 z" fill="#181818" />
</svg>