<svg xmlns="http://www.w3.org/2000/svg" viewBox="0 0 48 48" width="48px" height="48px">
  <path d="M 13.5 4 C 10.467 4 8 6.467 8 9.5 L 8 36 L 8 37.5 L 8 38.5 C 8 41.519774 10.480226 44 13.5 44 L 39.5 44 A 1.50015 1.50015 0 1 0 39.5 41 L 13.5 41 C 12.273237 41 11.277238 40.152347 11.050781 39 L 39.5 39 C 40.329 39 41 38.329 41 37.5 L 41 9.5 C 41 6.467 38.533 4 35.5 4 L 35 4 L 35 20.5 C 35 21.029 34.720625 21.519062 34.265625 21.789062 C 34.029625 21.929063 33.765 22 33.5 22 C 33.253 22 33.00525 21.938406 32.78125 21.816406 L 28 19.207031 L 23.21875 21.816406 C 22.75475 22.070406 22.191375 22.060063 21.734375 21.789062 C 21.279375 21.520063 21 21.029 21 20.5 L 21 4 L 13.5 4 z M 24 4 L 24 17.972656 L 27.28125 16.183594 C 27.50425 16.061594 27.753 16 28 16 C 28.247 16 28.49575 16.061594 28.71875 16.183594 L 32 17.972656 L 32 4 L 24 4 z" fill="#181818" />
</svg>