<svg xmlns="http://www.w3.org/2000/svg" viewBox="0 0 48 48" width="48px" height="48px">
  <path d="M 12.5 4 C 10.019 4 8 6.019 8 8.5 L 8 39.5 C 8 41.981 10.019 44 12.5 44 L 35.5 44 C 37.981 44 40 41.981 40 39.5 L 40 20 L 28.5 20 C 26.019 20 24 17.981 24 15.5 L 24 4 L 12.5 4 z M 27 4.8789062 L 27 15.5 C 27 16.327 27.673 17 28.5 17 L 39.121094 17 L 27 4.8789062 z M 17.5 25 L 30.5 25 C 31.328 25 32 25.672 32 26.5 C 32 27.328 31.328 28 30.5 28 L 17.5 28 C 16.672 28 16 27.328 16 26.5 C 16 25.672 16.672 25 17.5 25 z M 17.490234 32 L 26.486328 32 C 27.314328 32 27.986328 32.671 27.986328 33.5 C 27.987328 34.259 27.423406 34.887328 26.691406 34.986328 L 26.488281 35 L 17.492188 35 C 16.664188 35 15.992188 34.328 15.992188 33.5 C 15.992188 32.741 16.555109 32.112672 17.287109 32.013672 L 17.490234 32 z" fill="#FFFFFF" />
</svg>c39.6-0.1,77.6,15.6,105.6,43.7l74.3,74.4C453.7,146,469.4,184.1,469.3,223.7z M321.1,73.9
	c-6.7-6.5-14.3-12.1-22.4-16.6v92.1c0,11.8,9.6,21.3,21.3,21.3h92.1c-4.5-8.2-10.1-15.7-16.7-22.4L321.1,73.9z M426.7,223.7
	c0-3.5-0.7-6.9-1-10.3H320c-35.3,0-64-28.7-64-64V43.7c-3.5-0.3-6.8-1-10.3-1h-96.3c-35.3,0-64,28.7-64,64v298.7
	c0,35.3,28.7,64,64,64h213.3c35.3,0,64-28.7,64-64V223.7z"/>
</svg>
